<svg id="Capa_1" enable-background="new 0 0 512 512" height="512" viewBox="0 0 512 512" width="512" xmlns="http://www.w3.org/2000/svg" xmlns:xlink="http://www.w3.org/1999/xlink"><linearGradient id="SVGID_1_" gradientTransform="matrix(.707 .707 -.707 .707 277.213 -97.252)" gradientUnits="userSpaceOnUse" x1="234.787" x2="234.787" y1="583.333" y2="-53.76"><stop offset="0" stop-color="#fd3a84"/><stop offset="1" stop-color="#ffa68d"/></linearGradient><linearGradient id="SVGID_2_" gradientTransform="matrix(.707 .707 -.707 .707 277.213 -97.252)" gradientUnits="userSpaceOnUse" x1="234.787" x2="234.787" y1="429.787" y2="99.787"><stop offset="0" stop-color="#ffc2cc"/><stop offset="1" stop-color="#fff2f4"/></linearGradient><g><g><g><path d="m96.901 266.607-66.147 66.147c-41.005 41.005-41.005 107.488 0 148.492 41.005 41.005 107.488 41.005 148.492 0l66.147-66.147c41.005-41.005 41.005-107.488 0-148.492-41.004-41.005-107.487-41.005-148.492 0zm106.066 106.066-66.147 66.147c-17.546 17.546-46.093 17.546-63.64 0-17.546-17.546-17.546-46.093 0-63.64l66.147-66.147c17.546-17.547 46.093-17.547 63.64 0 17.546 17.546 17.546 46.093 0 63.64zm278.279-341.919c-41.005-41.005-107.488-41.005-148.492 0l-66.147 66.147c-41.005 41.005-41.005 107.488 0 148.492 41.005 41.005 107.488 41.005 148.492 0l66.147-66.147c41.005-41.005 41.005-107.488 0-148.492zm-42.426 106.066-66.147 66.147c-17.546 17.546-46.093 17.546-63.64 0-17.546-17.546-17.546-46.093 0-63.64l66.147-66.147c17.546-17.547 46.093-17.547 63.64 0 17.546 17.546 17.546 46.093 0 63.64z" fill="url(#SVGID_1_)"/></g></g><g><g><path d="m372.673 139.327c-17.574-17.574-46.066-17.574-63.64 0l-169.706 169.706c-17.574 17.574-17.574 46.066 0 63.64s46.066 17.574 63.64 0l169.706-169.706c17.573-17.574 17.573-46.066 0-63.64z" fill="url(#SVGID_2_)"/></g></g></g></svg>